<svg width="18" height="17" viewBox="0 0 18 17" fill="none" xmlns="http://www.w3.org/2000/svg">
<path d="M1.12372 14.1422C0.603018 14.6629 0.603018 15.5071 1.12372 16.0278C1.64442 16.5485 2.48864 16.5485 3.00934 16.0278L16.2087 2.82844C16.7294 2.30774 16.7294 1.46353 16.2087 0.942826C15.688 0.422127 14.8437 0.422127 14.323 0.942826L1.12372 14.1422Z" fill="#7D0000"/>
<path d="M16.0277 14.1422C16.5483 14.6629 16.5483 15.5071 16.0276 16.0278C15.507 16.5485 14.6627 16.5485 14.142 16.0278L0.942705 2.82844C0.422006 2.30774 0.422007 1.46353 0.942706 0.942826C1.46341 0.422127 2.30762 0.422127 2.82832 0.942826L16.0277 14.1422Z" fill="#7D0000"/>
</svg>
