<svg width="28" height="29" viewBox="0 0 28 29" fill="none" xmlns="http://www.w3.org/2000/svg">
<g clip-path="url(#clip0_387_3585)">
<path d="M7.94931 22.0363H19.9159C20.1709 22.0363 20.3761 22.2416 20.3761 22.4966C20.3761 22.7515 20.1709 22.9568 19.9159 22.9568H7.94931C7.69433 22.9568 7.48905 22.7515 7.48905 22.4966C7.48905 22.2416 7.69433 22.0363 7.94931 22.0363ZM7.94931 19.2748H19.9159C20.1709 19.2748 20.3761 19.4801 20.3761 19.735C20.3761 19.99 20.1709 20.1953 19.9159 20.1953H7.94931C7.69433 20.1953 7.48905 19.99 7.48905 19.735C7.48905 19.4801 7.69433 19.2748 7.94931 19.2748ZM3.34677 16.5133H24.5184C24.7734 16.5133 24.9787 16.7185 24.9787 16.9735C24.9787 17.2285 24.7734 17.4338 24.5184 17.4338H3.34677C3.09179 17.4338 2.88652 17.2285 2.88652 16.9735C2.88652 16.7185 3.09179 16.5133 3.34677 16.5133ZM1.50576 9.14921C0.749103 9.14921 0.125 9.77331 0.125 10.53V20.6555C0.125 21.4122 0.749103 22.0363 1.50576 22.0363H4.72753V26.1786C4.72753 26.9352 5.35164 27.5593 6.10829 27.5593H21.7569C22.5136 27.5593 23.1377 26.9352 23.1377 26.1786V22.0363H26.3594C27.1161 22.0363 27.7402 21.4122 27.7402 20.6555V10.53C27.7402 9.77331 27.1161 9.14921 26.3594 9.14921H1.50576ZM1.50576 10.0697H26.3594C26.6227 10.0697 26.8197 10.2667 26.8197 10.53V20.6555C26.8197 20.9188 26.6227 21.1158 26.3594 21.1158H23.1377V18.8145C23.1377 18.2033 22.2172 18.2033 22.2172 18.8145V21.5024C22.208 21.5521 22.208 21.6018 22.2172 21.6515V26.1786C22.2172 26.4418 22.0202 26.6388 21.7569 26.6388H6.10829C5.84503 26.6388 5.64804 26.4418 5.64804 26.1786V21.6497C5.65724 21.6 5.65724 21.5503 5.64804 21.5006V18.8145C5.65172 18.5549 5.44737 18.3506 5.18779 18.3543C4.93373 18.358 4.72385 18.5605 4.72753 18.8145V21.1158H1.50576C1.24249 21.1158 1.04551 20.9188 1.04551 20.6555V10.53C1.04551 10.2667 1.24249 10.0697 1.50576 10.0697ZM6.10829 1.78516C5.35164 1.78516 4.72753 2.40926 4.72753 3.16592V6.84794C4.72753 7.46744 5.64804 7.4518 5.64804 6.84794V3.16592C5.64804 2.90265 5.84503 2.70566 6.10829 2.70566H21.7569C22.0202 2.70566 22.2172 2.90265 22.2172 3.16592V6.84794C22.2172 7.46468 23.1377 7.44443 23.1377 6.84794V3.16592C23.1377 2.40926 22.5136 1.78516 21.7569 1.78516H6.10829Z" fill="currentColor"/>
</g>
<defs>
<clipPath id="clip0_387_3585">
<rect width="27.6152" height="27.6152" fill="white" transform="translate(0.125977 0.865234)"/>
</clipPath>
</defs>
</svg>
