<svg width="12" height="16" viewBox="0 0 12 16" fill="none" xmlns="http://www.w3.org/2000/svg">
<rect x="0.335041" y="9.21297" width="10.8575" height="6.45214" stroke="currentColor" stroke-width="0.670082"/>
<mask id="path-2-inside-1_642_6087" fill="white">
<path d="M0.949182 4.4845C0.949182 4.99413 1.07374 5.49876 1.31574 5.96959C1.55774 6.44043 1.91244 6.86823 2.35959 7.22859C2.80675 7.58895 3.3376 7.87481 3.92184 8.06983C4.50608 8.26486 5.13226 8.36523 5.76463 8.36523C6.397 8.36523 7.02319 8.26486 7.60742 8.06983C8.19166 7.87481 8.72251 7.58895 9.16967 7.22859C9.61682 6.86823 9.97153 6.44042 10.2135 5.96959C10.4555 5.49876 10.5801 4.99412 10.5801 4.4845L5.76463 4.4845L0.949182 4.4845Z"/>
</mask>
<path d="M0.949182 4.4845C0.949182 4.99413 1.07374 5.49876 1.31574 5.96959C1.55774 6.44043 1.91244 6.86823 2.35959 7.22859C2.80675 7.58895 3.3376 7.87481 3.92184 8.06983C4.50608 8.26486 5.13226 8.36523 5.76463 8.36523C6.397 8.36523 7.02319 8.26486 7.60742 8.06983C8.19166 7.87481 8.72251 7.58895 9.16967 7.22859C9.61682 6.86823 9.97153 6.44042 10.2135 5.96959C10.4555 5.49876 10.5801 4.99412 10.5801 4.4845L5.76463 4.4845L0.949182 4.4845Z" stroke="currentColor" stroke-width="1.34016" mask="url(#path-2-inside-1_642_6087)"/>
<rect x="5.32125" y="8.26657" width="0.878136" height="0.408134" stroke="currentColor" stroke-width="0.408134"/>
</svg>
