<svg width="28" height="28" viewBox="0 0 28 28" fill="none" xmlns="http://www.w3.org/2000/svg">
<path d="M5.16602 27.6655H23.2807" stroke="currentColor" stroke-width="1"/>
<mask id="path-2-inside-1_346_1121" fill="white">
<path d="M26.8778 13.3662C26.8778 15.0171 26.5527 16.6519 25.9209 18.1772C25.2891 19.7024 24.363 21.0883 23.1957 22.2557C22.0283 23.4231 20.6424 24.3491 19.1171 24.9809C17.5918 25.6127 15.957 25.9379 14.3061 25.9379C12.6552 25.9379 11.0204 25.6127 9.49511 24.9809C7.96984 24.3491 6.58394 23.4231 5.41655 22.2557C4.24916 21.0883 3.32313 19.7024 2.69134 18.1772C2.05955 16.6519 1.73437 15.0171 1.73438 13.3662L14.3061 13.3662H26.8778Z"/>
</mask>
<path d="M26.8778 13.3662C26.8778 15.0171 26.5527 16.6519 25.9209 18.1772C25.2891 19.7024 24.363 21.0883 23.1957 22.2557C22.0283 23.4231 20.6424 24.3491 19.1171 24.9809C17.5918 25.6127 15.957 25.9379 14.3061 25.9379C12.6552 25.9379 11.0204 25.6127 9.49511 24.9809C7.96984 24.3491 6.58394 23.4231 5.41655 22.2557C4.24916 21.0883 3.32313 19.7024 2.69134 18.1772C2.05955 16.6519 1.73437 15.0171 1.73438 13.3662L14.3061 13.3662H26.8778Z" stroke="currentColor" stroke-width="2" mask="url(#path-2-inside-1_346_1121)"/>
<path d="M26.4805 15.5161H28.4061" stroke="currentColor" stroke-width="1"/>
<path d="M0.246094 15.5161H2.17174" stroke="currentColor" stroke-width="1"/>
<path d="M10.2188 11.5894V8.65147" stroke="currentColor" stroke-width="1"/>
<path d="M14.8379 11.5894V4.07844" stroke="currentColor" stroke-width="1"/>
<path d="M17.9629 11.5894V8.65147" stroke="currentColor" stroke-width="1"/>
</svg>
