<svg width="17" height="12" viewBox="0 0 17 12" fill="none" xmlns="http://www.w3.org/2000/svg">
<path d="M2.30308 11.4705C1.75511 11.4705 1.30961 11.0771 1.30961 10.5936L1.59625 5.27682C0.807308 5.02491 0.268555 4.36028 0.268555 3.61573V0.987651C0.268555 0.894202 0.35451 0.818359 0.460418 0.818359H1.31958C1.42549 0.818359 1.51145 0.894202 1.51145 0.987651V3.25988H1.72442V0.987651C1.72442 0.894202 1.81037 0.818359 1.91628 0.818359H2.68988C2.79578 0.818359 2.88174 0.894202 2.88174 0.987651V3.25988H3.09471V0.987651C3.09471 0.894202 3.18066 0.818359 3.28657 0.818359H4.14574C4.25165 0.818359 4.3376 0.894202 4.3376 0.987651V3.61573C4.3376 4.36028 3.79885 5.02491 3.0099 5.27682L3.29655 10.5858C3.29655 11.0771 2.85104 11.4705 2.30308 11.4705ZM0.652666 1.15694V3.61573C0.652666 4.2543 1.14345 4.82041 1.84644 4.99207C1.93278 5.0134 1.99111 5.08383 1.98689 5.16306L1.69333 10.6017C1.69333 10.8909 1.96693 11.1319 2.30308 11.1319C2.63922 11.1319 2.91282 10.8905 2.91282 10.5936L2.61965 5.16306C2.61543 5.08417 2.67376 5.0134 2.7601 4.99207C3.46309 4.82007 3.95387 4.25396 3.95387 3.61573V1.15694H3.47843V3.42917C3.47843 3.52262 3.39248 3.59846 3.28657 3.59846H2.68988C2.58397 3.59846 2.49801 3.52262 2.49801 3.42917V1.15694H2.10814V3.42917C2.10814 3.52262 2.02219 3.59846 1.91628 3.59846H1.31958C1.21368 3.59846 1.12772 3.52262 1.12772 3.42917V1.15694H0.652666Z" fill="currentColor"/>
<path d="M8.33944 11.4705C7.79148 11.4705 7.34597 11.0771 7.34597 10.5936L7.63261 5.27682C6.84367 5.02491 6.30492 4.36028 6.30492 3.61573V0.987651C6.30492 0.894202 6.39087 0.818359 6.49678 0.818359H7.35594C7.46185 0.818359 7.54781 0.894202 7.54781 0.987651V3.25988H7.76078V0.987651C7.76078 0.894202 7.84673 0.818359 7.95264 0.818359H8.72624C8.83215 0.818359 8.9181 0.894202 8.9181 0.987651V3.25988H9.13107V0.987651C9.13107 0.894202 9.21702 0.818359 9.32293 0.818359H10.1821C10.288 0.818359 10.374 0.894202 10.374 0.987651V3.61573C10.374 4.36028 9.83521 5.02491 9.04626 5.27682L9.33291 10.5858C9.33291 11.0771 8.8874 11.4705 8.33944 11.4705ZM6.68903 1.15694V3.61573C6.68903 4.2543 7.17981 4.82041 7.8828 4.99207C7.96914 5.0134 8.02747 5.08383 8.02325 5.16306L7.7297 10.6017C7.7297 10.8909 8.00329 11.1319 8.33944 11.1319C8.67558 11.1319 8.94918 10.8905 8.94918 10.5936L8.65601 5.16306C8.65179 5.08417 8.71012 5.0134 8.79646 4.99207C9.49945 4.82007 9.99023 4.25396 9.99023 3.61573V1.15694H9.5148V3.42917C9.5148 3.52262 9.42884 3.59846 9.32293 3.59846H8.72624C8.62033 3.59846 8.53437 3.52262 8.53437 3.42917V1.15694H8.1445V3.42917C8.1445 3.52262 8.05855 3.59846 7.95264 3.59846H7.35594C7.25004 3.59846 7.16408 3.52262 7.16408 3.42917V1.15694H6.68903Z" fill="currentColor"/>
<path d="M14.3756 11.4705C13.8276 11.4705 13.3821 11.0771 13.3821 10.5936L13.6687 5.27682C12.8798 5.02491 12.341 4.36028 12.341 3.61573V0.987651C12.341 0.894202 12.427 0.818359 12.5329 0.818359H13.3921C13.498 0.818359 13.5839 0.894202 13.5839 0.987651V3.25988H13.7969V0.987651C13.7969 0.894202 13.8828 0.818359 13.9888 0.818359H14.7624C14.8683 0.818359 14.9542 0.894202 14.9542 0.987651V3.25988H15.1672V0.987651C15.1672 0.894202 15.2531 0.818359 15.359 0.818359H16.2182C16.3241 0.818359 16.4101 0.894202 16.4101 0.987651V3.61573C16.4101 4.36028 15.8713 5.02491 15.0824 5.27682L15.369 10.5858C15.369 11.0771 14.9235 11.4705 14.3756 11.4705ZM12.7251 1.15694V3.61573C12.7251 4.2543 13.2159 4.82041 13.9189 4.99207C14.0053 5.0134 14.0636 5.08383 14.0594 5.16306L13.7658 10.6017C13.7658 10.8909 14.0394 11.1319 14.3756 11.1319C14.7117 11.1319 14.9853 10.8905 14.9853 10.5936L14.6921 5.16306C14.6879 5.08417 14.7462 5.0134 14.8326 4.99207C15.5356 4.82007 16.0263 4.25396 16.0263 3.61573V1.15694H15.5509V3.42917C15.5509 3.52262 15.465 3.59846 15.359 3.59846H14.7624C14.6564 3.59846 14.5705 3.52262 14.5705 3.42917V1.15694H14.1806V3.42917C14.1806 3.52262 14.0947 3.59846 13.9888 3.59846H13.3921C13.2862 3.59846 13.2002 3.52262 13.2002 3.42917V1.15694H12.7251Z" fill="currentColor" opacity="0.5"/>
</svg>
