<svg width="41" height="25" viewBox="0 0 41 25" fill="none" xmlns="http://www.w3.org/2000/svg">
<path d="M1.55334 0.144531C2.96174 0.144531 5.10786 0.144531 6.31505 0.144531C6.91865 0.144531 7.38811 0.550278 7.58931 1.09127C8.1929 2.8495 9.53423 6.70409 11.0768 9.34144C13.1558 12.7903 14.4971 14.0751 15.369 13.9399C16.2409 13.737 15.9726 11.4378 15.9726 9.61194C15.9726 7.78608 16.1738 4.67536 15.3019 3.25525L13.9606 1.29415C13.6253 0.820775 13.9606 0.212156 14.4971 0.212156H22.1427C22.8804 0.212156 23.484 0.820775 23.484 1.56464V11.3702C23.484 11.3702 23.8193 13.1284 25.6972 11.3025C27.5751 9.47669 29.587 6.09547 31.2637 2.64663L31.9344 1.02365C32.1356 0.550277 32.605 0.212156 33.1416 0.212156H38.1045C39.0434 0.212156 39.7141 1.1589 39.3787 2.03801L38.8422 3.45812C38.8422 3.45812 37.0314 7.10984 35.1535 9.67956C33.2757 12.3169 32.8733 12.9255 33.1416 13.6018C33.4098 14.278 38.2386 18.8088 39.4458 20.9728C39.7811 21.5814 40.0494 22.1224 40.3176 22.5958C40.7871 23.4749 40.1164 24.6245 39.1105 24.6245H33.4769C33.0074 24.6245 32.538 24.354 32.3368 23.9483L31.8002 23.0692C31.8002 23.0692 28.3799 19.0117 26.3008 17.7269C24.1547 16.5096 24.2217 18.2678 24.2217 18.2678V21.8519C24.2217 23.3397 23.0145 24.5569 21.5391 24.5569H20.1978C20.1978 24.5569 12.8205 24.5569 6.91865 15.6981C2.29107 8.80044 0.748549 4.33724 0.212019 1.76751C0.0778866 0.956023 0.681483 0.144531 1.55334 0.144531Z" fill="currentColor"/>
</svg>
