<svg width="0" height="0" class="hidden">
  <symbol fill="none" xmlns="http://www.w3.org/2000/svg" viewBox="0 0 47 42" id="social-dzen">
    <g clip-path="url(#clip0_109_254)">
      <path d="M26.6184 24.253C24.0867 26.8573 23.9025 30.104 23.6839 37.217C30.3354 37.217 34.927 37.1941 37.2976 34.8995C39.5991 32.5362 39.6221 27.7406 39.6221 21.3275C32.4873 21.5569 29.2306 21.729 26.6184 24.253ZM7.40039 21.3275C7.40039 27.7406 7.42341 32.5362 9.72496 34.8995C12.0956 37.1941 16.6872 37.217 23.3387 37.217C23.1085 30.104 22.9359 26.8573 20.4042 24.253C17.7919 21.729 14.5352 21.5454 7.40039 21.3275ZM23.3387 5.09375C16.6987 5.09375 12.0956 5.1167 9.72496 7.41121C7.42341 9.77457 7.40039 14.5701 7.40039 20.9833C14.5352 20.7538 17.7919 20.5818 20.4042 18.0578C22.9359 15.4535 23.12 12.2068 23.3387 5.09375ZM26.6184 18.0578C24.0867 15.4535 23.9025 12.2068 23.6839 5.09375C30.3354 5.09375 34.927 5.1167 37.2976 7.41121C39.5991 9.77457 39.6221 14.5701 39.6221 20.9833C32.4873 20.7538 29.2306 20.5818 26.6184 18.0578Z" fill="currentColor"></path>
      <path d="M39.6221 21.3275L39.6221 20.9833C32.4873 20.7538 29.2306 20.5818 26.6184 18.0578C24.0867 15.4535 23.9025 12.2068 23.6839 5.09375L23.3387 5.09375C23.1085 12.2068 22.9359 15.4535 20.4042 18.0578C17.7919 20.5818 14.5352 20.7653 7.40039 20.9833L7.40039 21.3275C14.5352 21.5569 17.7919 21.729 20.4042 24.253C22.9359 26.8573 23.12 30.104 23.3387 37.217L23.6839 37.217C23.914 30.104 24.0867 26.8573 26.6184 24.253C29.2306 21.729 32.4873 21.5454 39.6221 21.3275Z" fill="none"></path>
    </g>
    <defs>
      <clipPath id="clip0_109_254">
        <rect width="32.2218" height="32.1233" fill="white" transform="translate(7.40039 5.09375)"></rect>
      </clipPath>
    </defs>
  </symbol>
  <symbol fill="none" xmlns="http://www.w3.org/2000/svg" viewBox="0 0 41 25" id="social-vk">
    <path d="M1.55334 0.144531C2.96174 0.144531 5.10786 0.144531 6.31505 0.144531C6.91865 0.144531 7.38811 0.550278 7.58931 1.09127C8.1929 2.8495 9.53423 6.70409 11.0768 9.34144C13.1558 12.7903 14.4971 14.0751 15.369 13.9399C16.2409 13.737 15.9726 11.4378 15.9726 9.61194C15.9726 7.78608 16.1738 4.67536 15.3019 3.25525L13.9606 1.29415C13.6253 0.820775 13.9606 0.212156 14.4971 0.212156H22.1427C22.8804 0.212156 23.484 0.820775 23.484 1.56464V11.3702C23.484 11.3702 23.8193 13.1284 25.6972 11.3025C27.5751 9.47669 29.587 6.09547 31.2637 2.64663L31.9344 1.02365C32.1356 0.550277 32.605 0.212156 33.1416 0.212156H38.1045C39.0434 0.212156 39.7141 1.1589 39.3787 2.03801L38.8422 3.45812C38.8422 3.45812 37.0314 7.10984 35.1535 9.67956C33.2757 12.3169 32.8733 12.9255 33.1416 13.6018C33.4098 14.278 38.2386 18.8088 39.4458 20.9728C39.7811 21.5814 40.0494 22.1224 40.3176 22.5958C40.7871 23.4749 40.1164 24.6245 39.1105 24.6245H33.4769C33.0074 24.6245 32.538 24.354 32.3368 23.9483L31.8002 23.0692C31.8002 23.0692 28.3799 19.0117 26.3008 17.7269C24.1547 16.5096 24.2217 18.2678 24.2217 18.2678V21.8519C24.2217 23.3397 23.0145 24.5569 21.5391 24.5569H20.1978C20.1978 24.5569 12.8205 24.5569 6.91865 15.6981C2.29107 8.80044 0.748549 4.33724 0.212019 1.76751C0.0778866 0.956023 0.681483 0.144531 1.55334 0.144531Z" fill="currentColor"></path>
  </symbol>
</svg>