<svg width="47" height="42" viewBox="0 0 47 42" fill="none" xmlns="http://www.w3.org/2000/svg">
<g clip-path="url(#clip0_109_254)">
<path d="M26.6184 24.253C24.0867 26.8573 23.9025 30.104 23.6839 37.217C30.3354 37.217 34.927 37.1941 37.2976 34.8995C39.5991 32.5362 39.6221 27.7406 39.6221 21.3275C32.4873 21.5569 29.2306 21.729 26.6184 24.253ZM7.40039 21.3275C7.40039 27.7406 7.42341 32.5362 9.72496 34.8995C12.0956 37.1941 16.6872 37.217 23.3387 37.217C23.1085 30.104 22.9359 26.8573 20.4042 24.253C17.7919 21.729 14.5352 21.5454 7.40039 21.3275ZM23.3387 5.09375C16.6987 5.09375 12.0956 5.1167 9.72496 7.41121C7.42341 9.77457 7.40039 14.5701 7.40039 20.9833C14.5352 20.7538 17.7919 20.5818 20.4042 18.0578C22.9359 15.4535 23.12 12.2068 23.3387 5.09375ZM26.6184 18.0578C24.0867 15.4535 23.9025 12.2068 23.6839 5.09375C30.3354 5.09375 34.927 5.1167 37.2976 7.41121C39.5991 9.77457 39.6221 14.5701 39.6221 20.9833C32.4873 20.7538 29.2306 20.5818 26.6184 18.0578Z" fill="currentColor"/>
<path d="M39.6221 21.3275L39.6221 20.9833C32.4873 20.7538 29.2306 20.5818 26.6184 18.0578C24.0867 15.4535 23.9025 12.2068 23.6839 5.09375L23.3387 5.09375C23.1085 12.2068 22.9359 15.4535 20.4042 18.0578C17.7919 20.5818 14.5352 20.7653 7.40039 20.9833L7.40039 21.3275C14.5352 21.5569 17.7919 21.729 20.4042 24.253C22.9359 26.8573 23.12 30.104 23.3387 37.217L23.6839 37.217C23.914 30.104 24.0867 26.8573 26.6184 24.253C29.2306 21.729 32.4873 21.5454 39.6221 21.3275Z" fill="none"/>
</g>
<defs>
<clipPath id="clip0_109_254">
<rect width="32.2218" height="32.1233" fill="white" transform="translate(7.40039 5.09375)"/>
</clipPath>
</defs>
</svg>
